{
  "accessors": [
    {
      "bufferView": 2,
      "componentType": 5126,
      "count": 348,
      "max": [
        0.979960024356842,
        1.0327199697494507,
        1.4980599880218506
      ],
      "min": [
        -1.0511900186538696,
        -1.0507899522781372,
        -0.12515999376773834
      ],
      "type": "VEC3"
    },
    {
      "bufferView": 2,
      "byteOffset": 4176,
      "componentType": 5126,
      "count": 348,
      "max": [
        0.9228827357292175,
        0.9297965168952942,
        0.999923586845398
      ],
      "min": [
        -0.9275003671646118,
        -0.972542405128479,
        -0.9950280785560608
      ],
      "type": "VEC3"
    },
    {
      "bufferView": 1,
      "componentType": 5126,
      "count": 348,
      "max": [
        0.1434600055217743,
        0.9358599781990051
      ],
      "min": [
        0.005659999791532755,
        0.9162700176239014
      ],
      "type": "VEC2"
    },
    {
      "bufferView": 0,
      "componentType": 5125,
      "count": 654,
      "type": "SCALAR"
    }
  ],
  "asset": {
    "extras": {
      "author": "CookieNoir (https://sketchfab.com/cookienoir)",
      "license": "CC-BY-4.0 (http://creativecommons.org/licenses/by/4.0/)",
      "source": "https://sketchfab.com/3d-models/low-poly-tent-ab94e72440604d889187e1f723168eca",
      "title": "Low-Poly Tent"
    },
    "generator": "Sketchfab-12.68.0",
    "version": "2.0"
  },
  "bufferViews": [
    {
      "buffer": 0,
      "byteLength": 2616,
      "name": "floatBufferViews",
      "target": 34963
    },
    {
      "buffer": 0,
      "byteLength": 2784,
      "byteOffset": 2616,
      "byteStride": 8,
      "name": "floatBufferViews",
      "target": 34962
    },
    {
      "buffer": 0,
      "byteLength": 8352,
      "byteOffset": 5400,
      "byteStride": 12,
      "name": "floatBufferViews",
      "target": 34962
    }
  ],
  "buffers": [
    {
      "byteLength": 13752,
      "uri": "scene.bin"
    }
  ],
  "extensionsRequired": [
    "KHR_materials_pbrSpecularGlossiness"
  ],
  "extensionsUsed": [
    "KHR_materials_pbrSpecularGlossiness"
  ],
  "images": [
    {
      "uri": "textures/Cavern_diffuse.png"
    },
    {
      "uri": "textures/Cavern_specularGlossiness.png"
    }
  ],
  "materials": [
    {
      "doubleSided": true,
      "extensions": {
        "KHR_materials_pbrSpecularGlossiness": {
          "diffuseFactor": [
            1.0,
            1.0,
            1.0,
            1.0
          ],
          "diffuseTexture": {
            "index": 0
          },
          "glossinessFactor": 1.0,
          "specularFactor": [
            1.0,
            1.0,
            1.0
          ],
          "specularGlossinessTexture": {
            "index": 1
          }
        }
      },
      "name": "Cavern"
    }
  ],
  "meshes": [
    {
      "name": "Camp_0",
      "primitives": [
        {
          "attributes": {
            "NORMAL": 1,
            "POSITION": 0,
            "TEXCOORD_0": 2
          },
          "indices": 3,
          "material": 0,
          "mode": 4
        }
      ]
    }
  ],
  "nodes": [
    {
      "children": [
        1
      ],
      "matrix": [
        1.0,
        0.0,
        0.0,
        0.0,
        0.0,
        2.220446049250313e-16,
        -1.0,
        0.0,
        0.0,
        1.0,
        2.220446049250313e-16,
        0.0,
        0.0,
        0.0,
        0.0,
        1.0
      ],
      "name": "Sketchfab_model"
    },
    {
      "children": [
        2
      ],
      "name": "Root"
    },
    {
      "children": [
        3
      ],
      "name": "Camp"
    },
    {
      "mesh": 0,
      "name": "Camp_0"
    }
  ],
  "samplers": [
    {
      "magFilter": 9729,
      "minFilter": 9987,
      "wrapS": 10497,
      "wrapT": 10497
    }
  ],
  "scene": 0,
  "scenes": [
    {
      "name": "Sketchfab_Scene",
      "nodes": [
        0
      ]
    }
  ],
  "textures": [
    {
      "sampler": 0,
      "source": 0
    },
    {
      "sampler": 0,
      "source": 1
    }
  ]
}
