{
  "accessors": [
    {
      "bufferView": 2,
      "componentType": 5126,
      "count": 3948,
      "max": [
        21.882694244384766,
        1.0000008344650269,
        8.826444625854492
      ],
      "min": [
        -2.309511184692383,
        -1.0,
        -9.00800895690918
      ],
      "type": "VEC3"
    },
    {
      "bufferView": 2,
      "byteOffset": 47376,
      "componentType": 5126,
      "count": 3948,
      "max": [
        0.9238805770874023,
        1.0,
        0.9238802194595337
      ],
      "min": [
        -0.9238799810409546,
        -1.0,
        -0.9961329698562622
      ],
      "type": "VEC3"
    },
    {
      "bufferView": 1,
      "componentType": 5126,
      "count": 3948,
      "max": [
        1.0,
        1.0
      ],
      "min": [
        0.0,
        0.0
      ],
      "type": "VEC2"
    },
    {
      "bufferView": 0,
      "componentType": 5125,
      "count": 6456,
      "type": "SCALAR"
    },
    {
      "bufferView": 2,
      "byteOffset": 94752,
      "componentType": 5126,
      "count": 108,
      "max": [
        1.0054370164871216,
        2.590787887573242,
        0.9499437212944031
      ],
      "min": [
        -1.0054370164871216,
        -1.388214349746704,
        -0.9523152112960815
      ],
      "type": "VEC3"
    },
    {
      "bufferView": 2,
      "byteOffset": 96048,
      "componentType": 5126,
      "count": 108,
      "max": [
        0.9994975924491882,
        1.0,
        0.9999977350234985
      ],
      "min": [
        -0.9994975924491882,
        -1.0,
        -0.9992706179618835
      ],
      "type": "VEC3"
    },
    {
      "bufferView": 1,
      "byteOffset": 31584,
      "componentType": 5126,
      "count": 108,
      "max": [
        0.8717246055603027,
        0.743756890296936
      ],
      "min": [
        0.1283782571554184,
        0.5062432289123535
      ],
      "type": "VEC2"
    },
    {
      "bufferView": 0,
      "byteOffset": 25824,
      "componentType": 5125,
      "count": 156,
      "type": "SCALAR"
    },
    {
      "bufferView": 2,
      "byteOffset": 97344,
      "componentType": 5126,
      "count": 977,
      "max": [
        0.8751192688941956,
        0.9999999403953552,
        2.0873095989227295
      ],
      "min": [
        -9.172587394714355,
        -1.0065293312072754,
        -4.91014289855957
      ],
      "type": "VEC3"
    },
    {
      "bufferView": 2,
      "byteOffset": 109068,
      "componentType": 5126,
      "count": 977,
      "max": [
        1.0,
        1.0,
        1.0
      ],
      "min": [
        -1.0,
        -1.0,
        -1.0
      ],
      "type": "VEC3"
    },
    {
      "bufferView": 1,
      "byteOffset": 32448,
      "componentType": 5126,
      "count": 977,
      "max": [
        0.875,
        1.0
      ],
      "min": [
        0.125,
        0.0
      ],
      "type": "VEC2"
    },
    {
      "bufferView": 0,
      "byteOffset": 26448,
      "componentType": 5125,
      "count": 1848,
      "type": "SCALAR"
    },
    {
      "bufferView": 2,
      "byteOffset": 120792,
      "componentType": 5126,
      "count": 320,
      "max": [
        21.34359359741211,
        0.9517413973808289,
        8.359424591064453
      ],
      "min": [
        -1.7011833190917969,
        -0.9517406225204468,
        -7.824712753295898
      ],
      "type": "VEC3"
    },
    {
      "bufferView": 2,
      "byteOffset": 124632,
      "componentType": 5126,
      "count": 320,
      "max": [
        0.9205058813095093,
        1.0,
        0.3907318115234375
      ],
      "min": [
        -0.9205051064491272,
        -1.0,
        -0.39073142409324646
      ],
      "type": "VEC3"
    },
    {
      "bufferView": 1,
      "byteOffset": 40264,
      "componentType": 5126,
      "count": 320,
      "max": [
        0.9183804392814636,
        0.418380469083786
      ],
      "min": [
        0.08161958307027817,
        0.08161957561969757
      ],
      "type": "VEC2"
    },
    {
      "bufferView": 0,
      "byteOffset": 33840,
      "componentType": 5125,
      "count": 720,
      "type": "SCALAR"
    },
    {
      "bufferView": 2,
      "byteOffset": 128472,
      "componentType": 5126,
      "count": 688,
      "max": [
        0.7819831967353821,
        0.8999999165534973,
        1.961146593093872
      ],
      "min": [
        -9.079451560974121,
        -0.9065293669700623,
        -4.805344104766846
      ],
      "type": "VEC3"
    },
    {
      "bufferView": 2,
      "byteOffset": 136728,
      "componentType": 5126,
      "count": 688,
      "max": [
        1.0,
        1.0,
        1.0
      ],
      "min": [
        -1.0,
        -1.0,
        -1.0
      ],
      "type": "VEC3"
    },
    {
      "bufferView": 1,
      "byteOffset": 42824,
      "componentType": 5126,
      "count": 688,
      "max": [
        0.612500011920929,
        0.737500011920929
      ],
      "min": [
        0.38749998807907104,
        0.512499988079071
      ],
      "type": "VEC2"
    },
    {
      "bufferView": 0,
      "byteOffset": 36720,
      "componentType": 5125,
      "count": 1032,
      "type": "SCALAR"
    },
    {
      "bufferView": 2,
      "byteOffset": 144984,
      "componentType": 5126,
      "count": 139,
      "max": [
        0.7358407974243164,
        0.7358397841453552,
        0.02715301513671875
      ],
      "min": [
        -0.7358388900756836,
        -0.7358396053314209,
        -0.012942790985107422
      ],
      "type": "VEC3"
    },
    {
      "bufferView": 2,
      "byteOffset": 146652,
      "componentType": 5126,
      "count": 139,
      "max": [
        1.0,
        1.0,
        1.0
      ],
      "min": [
        -1.0,
        -1.0,
        -1.0
      ],
      "type": "VEC3"
    },
    {
      "bufferView": 1,
      "byteOffset": 48328,
      "componentType": 5126,
      "count": 139,
      "max": [
        0.875,
        1.0
      ],
      "min": [
        0.125,
        0.0
      ],
      "type": "VEC2"
    },
    {
      "bufferView": 0,
      "byteOffset": 40848,
      "componentType": 5125,
      "count": 264,
      "type": "SCALAR"
    },
    {
      "bufferView": 2,
      "byteOffset": 148320,
      "componentType": 5126,
      "count": 76,
      "max": [
        -0.8461825251579285,
        1.0511845350265503,
        0.019801467657089233
      ],
      "min": [
        -0.9452446699142456,
        0.3761774003505707,
        -0.13313859701156616
      ],
      "type": "VEC3"
    },
    {
      "bufferView": 2,
      "byteOffset": 149232,
      "componentType": 5126,
      "count": 76,
      "max": [
        1.0,
        1.0,
        1.0
      ],
      "min": [
        -1.0,
        -1.0,
        -1.0
      ],
      "type": "VEC3"
    },
    {
      "bufferView": 1,
      "byteOffset": 49440,
      "componentType": 5126,
      "count": 76,
      "max": [
        0.5237263441085815,
        0.7789647579193115
      ],
      "min": [
        0.4762735962867737,
        0.7676664590835571
      ],
      "type": "VEC2"
    },
    {
      "bufferView": 0,
      "byteOffset": 41904,
      "componentType": 5125,
      "count": 150,
      "type": "SCALAR"
    },
    {
      "bufferView": 2,
      "byteOffset": 150144,
      "componentType": 5126,
      "count": 1159,
      "max": [
        1.0918338298797607,
        2.4917867183685303,
        0.24281606078147888
      ],
      "min": [
        -1.1001431941986084,
        -1.064424753189087,
        0.019801467657089233
      ],
      "type": "VEC3"
    },
    {
      "bufferView": 2,
      "byteOffset": 164052,
      "componentType": 5126,
      "count": 1159,
      "max": [
        1.0,
        1.0,
        1.0
      ],
      "min": [
        -1.0,
        -1.0,
        -1.0
      ],
      "type": "VEC3"
    },
    {
      "bufferView": 1,
      "byteOffset": 50048,
      "componentType": 5126,
      "count": 1159,
      "max": [
        0.875,
        1.0
      ],
      "min": [
        0.0,
        0.0
      ],
      "type": "VEC2"
    },
    {
      "bufferView": 0,
      "byteOffset": 42504,
      "componentType": 5125,
      "count": 2835,
      "type": "SCALAR"
    }
  ],
  "asset": {
    "extras": {
      "author": "Igeeig (https://sketchfab.com/tylerhennessy0)",
      "license": "CC-BY-4.0 (http://creativecommons.org/licenses/by/4.0/)",
      "source": "https://sketchfab.com/3d-models/low-poly-log-cabin-6e8fe411056e47a48bd9cd7ebe2d458a",
      "title": "Low poly log cabin"
    },
    "generator": "Sketchfab-16.7.0",
    "version": "2.0"
  },
  "bufferViews": [
    {
      "buffer": 0,
      "byteLength": 53844,
      "name": "floatBufferViews",
      "target": 34963
    },
    {
      "buffer": 0,
      "byteLength": 59320,
      "byteOffset": 53844,
      "byteStride": 8,
      "name": "floatBufferViews",
      "target": 34962
    },
    {
      "buffer": 0,
      "byteLength": 177960,
      "byteOffset": 113164,
      "byteStride": 12,
      "name": "floatBufferViews",
      "target": 34962
    }
  ],
  "buffers": [
    {
      "byteLength": 291124,
      "uri": "scene.bin"
    }
  ],
  "materials": [
    {
      "doubleSided": true,
      "name": "Material.001",
      "pbrMetallicRoughness": {
        "baseColorFactor": [
          0.142393,
          0.0365787,
          0.00473321,
          1.0
        ],
        "metallicFactor": 0.0,
        "roughnessFactor": 0.5
      }
    },
    {
      "doubleSided": true,
      "name": "Material.008",
      "pbrMetallicRoughness": {
        "baseColorFactor": [
          0.114935,
          0.0290602,
          0.0,
          1.0
        ],
        "metallicFactor": 0.0,
        "roughnessFactor": 0.5
      }
    },
    {
      "doubleSided": true,
      "name": "Material.004",
      "pbrMetallicRoughness": {
        "baseColorFactor": [
          0.220257,
          0.220257,
          0.220257,
          1.0
        ],
        "metallicFactor": 0.0,
        "roughnessFactor": 0.5
      }
    },
    {
      "doubleSided": true,
      "name": "Material.002",
      "pbrMetallicRoughness": {
        "baseColorFactor": [
          0.8,
          0.0910993,
          0.0217245,
          1.0
        ],
        "metallicFactor": 0.0,
        "roughnessFactor": 0.5
      }
    },
    {
      "doubleSided": true,
      "name": "Material.003",
      "pbrMetallicRoughness": {
        "baseColorFactor": [
          0.0,
          0.845027,
          1.0,
          1.0
        ],
        "metallicFactor": 0.0,
        "roughnessFactor": 0.5
      }
    },
    {
      "doubleSided": true,
      "name": "Material.005",
      "pbrMetallicRoughness": {
        "baseColorFactor": [
          0.238398,
          0.238398,
          0.250158,
          1.0
        ],
        "metallicFactor": 0.0,
        "roughnessFactor": 0.5
      }
    },
    {
      "doubleSided": true,
      "name": "Material.007",
      "pbrMetallicRoughness": {
        "baseColorFactor": [
          0.114935,
          0.029096,
          0.0,
          1.0
        ],
        "metallicFactor": 0.0,
        "roughnessFactor": 0.5
      }
    },
    {
      "doubleSided": true,
      "name": "Material.006",
      "pbrMetallicRoughness": {
        "baseColorFactor": [
          0.226584,
          0.067785,
          0.0198777,
          1.0
        ],
        "metallicFactor": 0.0,
        "roughnessFactor": 0.5
      }
    }
  ],
  "meshes": [
    {
      "name": "Object_0",
      "primitives": [
        {
          "attributes": {
            "NORMAL": 1,
            "POSITION": 0,
            "TEXCOORD_0": 2
          },
          "indices": 3,
          "material": 0,
          "mode": 4
        }
      ]
    },
    {
      "name": "Object_1",
      "primitives": [
        {
          "attributes": {
            "NORMAL": 5,
            "POSITION": 4,
            "TEXCOORD_0": 6
          },
          "indices": 7,
          "material": 1,
          "mode": 4
        }
      ]
    },
    {
      "name": "Object_2",
      "primitives": [
        {
          "attributes": {
            "NORMAL": 9,
            "POSITION": 8,
            "TEXCOORD_0": 10
          },
          "indices": 11,
          "material": 2,
          "mode": 4
        }
      ]
    },
    {
      "name": "Object_3",
      "primitives": [
        {
          "attributes": {
            "NORMAL": 13,
            "POSITION": 12,
            "TEXCOORD_0": 14
          },
          "indices": 15,
          "material": 3,
          "mode": 4
        }
      ]
    },
    {
      "name": "Object_4",
      "primitives": [
        {
          "attributes": {
            "NORMAL": 17,
            "POSITION": 16,
            "TEXCOORD_0": 18
          },
          "indices": 19,
          "material": 4,
          "mode": 4
        }
      ]
    },
    {
      "name": "Object_5",
      "primitives": [
        {
          "attributes": {
            "NORMAL": 21,
            "POSITION": 20,
            "TEXCOORD_0": 22
          },
          "indices": 23,
          "material": 5,
          "mode": 4
        }
      ]
    },
    {
      "name": "Object_6",
      "primitives": [
        {
          "attributes": {
            "NORMAL": 25,
            "POSITION": 24,
            "TEXCOORD_0": 26
          },
          "indices": 27,
          "material": 6,
          "mode": 4
        }
      ]
    },
    {
      "name": "Object_7",
      "primitives": [
        {
          "attributes": {
            "NORMAL": 29,
            "POSITION": 28,
            "TEXCOORD_0": 30
          },
          "indices": 31,
          "material": 7,
          "mode": 4
        }
      ]
    }
  ],
  "nodes": [
    {
      "children": [
        1
      ],
      "matrix": [
        1.0,
        0.0,
        0.0,
        0.0,
        0.0,
        2.220446049250313e-16,
        -1.0,
        0.0,
        0.0,
        1.0,
        2.220446049250313e-16,
        0.0,
        0.0,
        0.0,
        0.0,
        1.0
      ],
      "name": "Sketchfab_model"
    },
    {
      "children": [
        2
      ],
      "name": "root"
    },
    {
      "children": [
        3,
        5,
        7,
        9,
        11,
        13,
        15
      ],
      "matrix": [
        1.0,
        0.0,
        0.0,
        0.0,
        0.0,
        2.220446049250313e-16,
        1.0,
        0.0,
        0.0,
        -1.0,
        2.220446049250313e-16,
        0.0,
        0.0,
        0.0,
        0.0,
        1.0
      ],
      "name": "GLTF_SceneRootNode"
    },
    {
      "children": [
        4
      ],
      "matrix": [
        -0.9205048815711026,
        0.39073106224574045,
        2.92950077390719e-07,
        0.0,
        -2.5359310471307e-06,
        -1.5205764554496181e-07,
        -7.765566349029125,
        0.0,
        -0.39073106224571375,
        -0.920504881571149,
        1.456219400619574e-07,
        0.0,
        12.437984466552734,
        0.0,
        5.988585948944092,
        1.0
      ],
      "name": "Cylinder.003_0"
    },
    {
      "mesh": 0,
      "name": "Object_4"
    },
    {
      "children": [
        6
      ],
      "matrix": [
        12.55724048614502,
        0.0,
        0.0,
        0.0,
        0.0,
        1.8162860870361328,
        0.0,
        0.0,
        0.0,
        0.0,
        8.730684280395508,
        0.0,
        3.295384407043457,
        9.501288414001465,
        6.250452518463135,
        1.0
      ],
      "name": "Cube_1"
    },
    {
      "mesh": 1,
      "name": "Object_6"
    },
    {
      "children": [
        8
      ],
      "matrix": [
        -2.0999443531036377,
        -0.0,
        -0.0,
        -0.0,
        0.0,
        -2.0999443531036377,
        -0.0,
        -0.0,
        0.0,
        -0.0,
        -2.0999443531036377,
        -0.0,
        -5.590271949768066,
        3.8575689792633057,
        3.1371922492980957,
        1.0
      ],
      "name": "Cube.002_2"
    },
    {
      "mesh": 2,
      "name": "Object_8"
    },
    {
      "children": [
        10
      ],
      "matrix": [
        -0.9205048815711026,
        0.39073106224574045,
        2.92950077390719e-07,
        0.0,
        -2.5359310471307e-06,
        -1.5205764554496181e-07,
        -7.765566349029125,
        0.0,
        -0.39073106224571375,
        -0.920504881571149,
        1.456219400619574e-07,
        0.0,
        12.437984466552734,
        0.0,
        5.988585948944092,
        1.0
      ],
      "name": "Cylinder.000_3"
    },
    {
      "mesh": 3,
      "name": "Object_10"
    },
    {
      "children": [
        12
      ],
      "matrix": [
        -2.0999443531036377,
        -0.0,
        -0.0,
        -0.0,
        0.0,
        -2.0999443531036377,
        -0.0,
        -0.0,
        0.0,
        -0.0,
        -2.0999443531036377,
        -0.0,
        -5.590271949768066,
        3.8575689792633057,
        3.1371922492980957,
        1.0
      ],
      "name": "Cube.001_4"
    },
    {
      "mesh": 4,
      "name": "Object_12"
    },
    {
      "children": [
        14
      ],
      "matrix": [
        -2.0999443531036377,
        -0.0,
        -0.0,
        -0.0,
        -0.0,
        -2.0999443531036377,
        -0.0,
        -0.0,
        -0.0,
        -0.0,
        -2.0999443531036377,
        -0.0,
        6.3372015953063965,
        4.322147369384766,
        13.238553047180176,
        1.0
      ],
      "name": "Cube.004_5"
    },
    {
      "mesh": 5,
      "name": "Object_14"
    },
    {
      "children": [
        16,
        17
      ],
      "matrix": [
        -1.8879001140594482,
        -0.0,
        -0.0,
        -0.0,
        -0.0,
        -2.0999443531036377,
        -0.0,
        -0.0,
        -0.0,
        -0.0,
        -2.0999443531036377,
        -0.0,
        6.3372015953063965,
        4.322147369384766,
        13.238553047180176,
        1.0
      ],
      "name": "Cube.005_6"
    },
    {
      "mesh": 6,
      "name": "Object_16"
    },
    {
      "mesh": 7,
      "name": "Object_17"
    }
  ],
  "scene": 0,
  "scenes": [
    {
      "name": "Sketchfab_Scene",
      "nodes": [
        0
      ]
    }
  ]
}
