{
  "accessors": [
    {
      "bufferView": 2,
      "componentType": 5126,
      "count": 421,
      "max": [
        0.5880600214004517,
        0.2909800112247467,
        0.32969000935554504
      ],
      "min": [
        -0.32756999135017395,
        -0.6954699754714966,
        -0.02142000012099743
      ],
      "type": "VEC3"
    },
    {
      "bufferView": 2,
      "byteOffset": 5052,
      "componentType": 5126,
      "count": 421,
      "max": [
        1.0,
        1.0,
        1.0
      ],
      "min": [
        -1.0,
        -1.0,
        -1.0
      ],
      "type": "VEC3"
    },
    {
      "bufferView": 1,
      "componentType": 5126,
      "count": 421,
      "max": [
        0.9534800052642822,
        0.9811599850654602
      ],
      "min": [
        0.0,
        0.0
      ],
      "type": "VEC2"
    },
    {
      "bufferView": 0,
      "componentType": 5125,
      "count": 981,
      "type": "SCALAR"
    },
    {
      "bufferView": 2,
      "byteOffset": 10104,
      "componentType": 5126,
      "count": 132,
      "max": [
        0.33935999870300293,
        0.24044999480247498,
        0.26298999786376953
      ],
      "min": [
        -0.267659991979599,
        -0.5709099769592285,
        -0.0134699996560812
      ],
      "type": "VEC3"
    },
    {
      "bufferView": 2,
      "byteOffset": 11688,
      "componentType": 5126,
      "count": 132,
      "max": [
        0.6282294392585754,
        0.6058605909347534,
        1.0
      ],
      "min": [
        -0.4793050289154053,
        -0.7381000518798828,
        0.6713440418243408
      ],
      "type": "VEC3"
    },
    {
      "bufferView": 1,
      "byteOffset": 3368,
      "componentType": 5126,
      "count": 132,
      "max": [
        0.7964699864387512,
        0.4899500012397766
      ],
      "min": [
        0.0,
        0.0
      ],
      "type": "VEC2"
    },
    {
      "bufferView": 0,
      "byteOffset": 3924,
      "componentType": 5125,
      "count": 204,
      "type": "SCALAR"
    },
    {
      "bufferView": 2,
      "byteOffset": 13272,
      "componentType": 5126,
      "count": 152,
      "max": [
        -0.14569999277591705,
        0.11640000343322754,
        0.3642300069332123
      ],
      "min": [
        -0.29416999220848083,
        -0.13274000585079193,
        0.1984899938106537
      ],
      "type": "VEC3"
    },
    {
      "bufferView": 2,
      "byteOffset": 15096,
      "componentType": 5126,
      "count": 152,
      "max": [
        0.6252163052558899,
        0.7451244592666626,
        0.9967256784439087
      ],
      "min": [
        -0.6694087982177734,
        -0.8492946028709412,
        0.5062246918678284
      ],
      "type": "VEC3"
    },
    {
      "bufferView": 1,
      "byteOffset": 4424,
      "componentType": 5126,
      "count": 152,
      "max": [
        1.0,
        1.0
      ],
      "min": [
        0.0,
        0.0
      ],
      "type": "VEC2"
    },
    {
      "bufferView": 0,
      "byteOffset": 4740,
      "componentType": 5125,
      "count": 324,
      "type": "SCALAR"
    },
    {
      "bufferView": 2,
      "byteOffset": 16920,
      "componentType": 5126,
      "count": 158,
      "max": [
        -0.19933000206947327,
        0.06582000106573105,
        0.34942999482154846
      ],
      "min": [
        -0.24025000631809235,
        -0.10140000283718109,
        0.2049199938774109
      ],
      "type": "VEC3"
    },
    {
      "bufferView": 2,
      "byteOffset": 18816,
      "componentType": 5126,
      "count": 158,
      "max": [
        0.9990448951721191,
        0.9864431619644165,
        0.9990324974060059
      ],
      "min": [
        -0.9990448951721191,
        -0.9688376188278198,
        -0.978532075881958
      ],
      "type": "VEC3"
    },
    {
      "bufferView": 1,
      "byteOffset": 5640,
      "componentType": 5126,
      "count": 158,
      "max": [
        0.9747599959373474,
        0.9894099831581116
      ],
      "min": [
        0.22333000600337982,
        0.4899500012397766
      ],
      "type": "VEC2"
    },
    {
      "bufferView": 0,
      "byteOffset": 6036,
      "componentType": 5125,
      "count": 480,
      "type": "SCALAR"
    },
    {
      "bufferView": 2,
      "byteOffset": 20712,
      "componentType": 5126,
      "count": 480,
      "max": [
        0.3941499888896942,
        -0.24045999348163605,
        0.2452699989080429
      ],
      "min": [
        0.11069999635219574,
        -0.5113300085067749,
        0.0
      ],
      "type": "VEC3"
    },
    {
      "bufferView": 2,
      "byteOffset": 26472,
      "componentType": 5126,
      "count": 480,
      "max": [
        1.0,
        1.0,
        1.0
      ],
      "min": [
        -1.0,
        -1.0,
        -0.9854944944381714
      ],
      "type": "VEC3"
    },
    {
      "bufferView": 1,
      "byteOffset": 6904,
      "componentType": 5126,
      "count": 480,
      "max": [
        0.0,
        0.0
      ],
      "min": [
        0.0,
        0.0
      ],
      "type": "VEC2"
    },
    {
      "bufferView": 0,
      "byteOffset": 7956,
      "componentType": 5125,
      "count": 714,
      "type": "SCALAR"
    },
    {
      "bufferView": 2,
      "byteOffset": 32232,
      "componentType": 5126,
      "count": 104,
      "max": [
        0.5187399983406067,
        -0.1387300044298172,
        0.3141300082206726
      ],
      "min": [
        -0.0011099999537691474,
        -0.6108300089836121,
        0.18228000402450562
      ],
      "type": "VEC3"
    },
    {
      "bufferView": 2,
      "byteOffset": 33480,
      "componentType": 5126,
      "count": 104,
      "max": [
        0.5916306972503662,
        0.35748040676116943,
        0.993283212184906
      ],
      "min": [
        -0.5164574980735779,
        -0.7170422077178955,
        0.6589985489845276
      ],
      "type": "VEC3"
    },
    {
      "bufferView": 1,
      "byteOffset": 10744,
      "componentType": 5126,
      "count": 104,
      "max": [
        0.0,
        0.0
      ],
      "min": [
        0.0,
        0.0
      ],
      "type": "VEC2"
    },
    {
      "bufferView": 0,
      "byteOffset": 10812,
      "componentType": 5125,
      "count": 156,
      "type": "SCALAR"
    },
    {
      "bufferView": 2,
      "byteOffset": 34728,
      "componentType": 5126,
      "count": 16,
      "max": [
        0.3575400114059448,
        -0.25894999504089355,
        0.35420000553131104
      ],
      "min": [
        0.22190000116825104,
        -0.5808899998664856,
        0.2269899994134903
      ],
      "type": "VEC3"
    },
    {
      "bufferView": 2,
      "byteOffset": 34920,
      "componentType": 5126,
      "count": 16,
      "max": [
        0.8084558248519897,
        -0.0,
        0.8834602236747742
      ],
      "min": [
        -0.5164597034454346,
        -0.4123601019382477,
        0.5885569453239441
      ],
      "type": "VEC3"
    },
    {
      "bufferView": 1,
      "byteOffset": 11576,
      "componentType": 5126,
      "count": 16,
      "max": [
        0.0,
        0.0
      ],
      "min": [
        0.0,
        0.0
      ],
      "type": "VEC2"
    },
    {
      "bufferView": 0,
      "byteOffset": 11436,
      "componentType": 5125,
      "count": 24,
      "type": "SCALAR"
    },
    {
      "bufferView": 2,
      "byteOffset": 35112,
      "componentType": 5126,
      "count": 540,
      "max": [
        0.2836799919605255,
        0.28202998638153076,
        0.3546000123023987
      ],
      "min": [
        0.17635999619960785,
        0.19257000088691711,
        0.1985200047492981
      ],
      "type": "VEC3"
    },
    {
      "bufferView": 2,
      "byteOffset": 41592,
      "componentType": 5126,
      "count": 540,
      "max": [
        0.9962294697761536,
        0.9783320426940918,
        0.9989725351333618
      ],
      "min": [
        -0.9944592118263245,
        -0.968212366104126,
        -0.9989725351333618
      ],
      "type": "VEC3"
    },
    {
      "bufferView": 1,
      "byteOffset": 11704,
      "componentType": 5126,
      "count": 540,
      "max": [
        0.0,
        0.0
      ],
      "min": [
        0.0,
        0.0
      ],
      "type": "VEC2"
    },
    {
      "bufferView": 0,
      "byteOffset": 11532,
      "componentType": 5125,
      "count": 2160,
      "type": "SCALAR"
    }
  ],
  "asset": {
    "extras": {
      "author": "InnocentBaraka (https://sketchfab.com/InnocentBaraka)",
      "license": "CC-BY-4.0 (http://creativecommons.org/licenses/by/4.0/)",
      "source": "https://sketchfab.com/3d-models/low-poly-flowers-b74c6eee48844ac395de267d373d73c1",
      "title": "Low Poly Flowers"
    },
    "generator": "Sketchfab-12.67.0",
    "version": "2.0"
  },
  "bufferViews": [
    {
      "buffer": 0,
      "byteLength": 20172,
      "name": "floatBufferViews",
      "target": 34963
    },
    {
      "buffer": 0,
      "byteLength": 16024,
      "byteOffset": 20172,
      "byteStride": 8,
      "name": "floatBufferViews",
      "target": 34962
    },
    {
      "buffer": 0,
      "byteLength": 48072,
      "byteOffset": 36196,
      "byteStride": 12,
      "name": "floatBufferViews",
      "target": 34962
    }
  ],
  "buffers": [
    {
      "byteLength": 84268,
      "uri": "scene.bin"
    }
  ],
  "materials": [
    {
      "doubleSided": true,
      "name": "Material.001",
      "pbrMetallicRoughness": {
        "baseColorFactor": [
          0.0,
          0.20190060138702393,
          0.0036944590974599123,
          1.0
        ],
        "metallicFactor": 0.0,
        "roughnessFactor": 0.6
      }
    },
    {
      "doubleSided": true,
      "name": "Material.002",
      "pbrMetallicRoughness": {
        "baseColorFactor": [
          0.003390765283256769,
          0.5488514304161072,
          0.0,
          1.0
        ],
        "metallicFactor": 0.0,
        "roughnessFactor": 0.6
      }
    },
    {
      "doubleSided": true,
      "name": "Material.004",
      "pbrMetallicRoughness": {
        "baseColorFactor": [
          0.8000000715255737,
          0.7158135175704956,
          0.0,
          1.0
        ],
        "metallicFactor": 0.0,
        "roughnessFactor": 0.6
      }
    },
    {
      "doubleSided": true,
      "name": "Material.003",
      "pbrMetallicRoughness": {
        "baseColorFactor": [
          0.8000000715255737,
          0.25996163487434387,
          0.0,
          1.0
        ],
        "metallicFactor": 0.0,
        "roughnessFactor": 0.6
      }
    },
    {
      "doubleSided": true,
      "name": "Material.006",
      "pbrMetallicRoughness": {
        "baseColorFactor": [
          0.2469327598810196,
          0.8000000715255737,
          0.2843855023384094,
          1.0
        ],
        "metallicFactor": 0.0,
        "roughnessFactor": 0.6
      }
    },
    {
      "doubleSided": true,
      "name": "Material.007",
      "pbrMetallicRoughness": {
        "baseColorFactor": [
          0.8000000715255737,
          0.0007051076390780509,
          0.0,
          1.0
        ],
        "metallicFactor": 0.0,
        "roughnessFactor": 0.6
      }
    },
    {
      "doubleSided": true,
      "name": "Material.008",
      "pbrMetallicRoughness": {
        "baseColorFactor": [
          1.0,
          0.05674675479531288,
          0.0,
          1.0
        ],
        "metallicFactor": 0.0,
        "roughnessFactor": 0.6
      }
    },
    {
      "doubleSided": true,
      "name": "Material.005",
      "pbrMetallicRoughness": {
        "baseColorFactor": [
          0.6866648197174072,
          0.0,
          0.8000000715255737,
          1.0
        ],
        "metallicFactor": 0.0,
        "roughnessFactor": 0.6
      }
    }
  ],
  "meshes": [
    {
      "name": "Cube.001_0",
      "primitives": [
        {
          "attributes": {
            "NORMAL": 1,
            "POSITION": 0,
            "TEXCOORD_0": 2
          },
          "indices": 3,
          "material": 0,
          "mode": 4
        }
      ]
    },
    {
      "name": "Cube.001_1",
      "primitives": [
        {
          "attributes": {
            "NORMAL": 5,
            "POSITION": 4,
            "TEXCOORD_0": 6
          },
          "indices": 7,
          "material": 1,
          "mode": 4
        }
      ]
    },
    {
      "name": "Cube.001_2",
      "primitives": [
        {
          "attributes": {
            "NORMAL": 9,
            "POSITION": 8,
            "TEXCOORD_0": 10
          },
          "indices": 11,
          "material": 2,
          "mode": 4
        }
      ]
    },
    {
      "name": "Cube.001_3",
      "primitives": [
        {
          "attributes": {
            "NORMAL": 13,
            "POSITION": 12,
            "TEXCOORD_0": 14
          },
          "indices": 15,
          "material": 3,
          "mode": 4
        }
      ]
    },
    {
      "name": "Cube.001_4",
      "primitives": [
        {
          "attributes": {
            "NORMAL": 17,
            "POSITION": 16,
            "TEXCOORD_0": 18
          },
          "indices": 19,
          "material": 4,
          "mode": 4
        }
      ]
    },
    {
      "name": "Cube.001_5",
      "primitives": [
        {
          "attributes": {
            "NORMAL": 21,
            "POSITION": 20,
            "TEXCOORD_0": 22
          },
          "indices": 23,
          "material": 5,
          "mode": 4
        }
      ]
    },
    {
      "name": "Cube.001_6",
      "primitives": [
        {
          "attributes": {
            "NORMAL": 25,
            "POSITION": 24,
            "TEXCOORD_0": 26
          },
          "indices": 27,
          "material": 6,
          "mode": 4
        }
      ]
    },
    {
      "name": "Cube.001_7",
      "primitives": [
        {
          "attributes": {
            "NORMAL": 29,
            "POSITION": 28,
            "TEXCOORD_0": 30
          },
          "indices": 31,
          "material": 7,
          "mode": 4
        }
      ]
    }
  ],
  "nodes": [
    {
      "children": [
        1
      ],
      "matrix": [
        0.9090158343315125,
        0.0,
        0.0,
        0.0,
        0.0,
        2.018420618047384e-16,
        -0.9090158343315125,
        0.0,
        0.0,
        0.9090158343315125,
        2.018420618047384e-16,
        0.0,
        0.0,
        0.0,
        0.0,
        1.0
      ],
      "name": "Sketchfab_model"
    },
    {
      "children": [
        2,
        4
      ],
      "name": "Root"
    },
    {
      "children": [
        3
      ],
      "matrix": [
        -0.29086000000000006,
        0.9551700000000001,
        -0.05519000000000001,
        0.0,
        -0.7711,
        -0.19988000000000003,
        0.6045200000000001,
        0.0,
        0.5663900000000001,
        0.21839000000000003,
        0.7946700000000001,
        0.0,
        4.076250000000001,
        1.00545,
        5.903860000000001,
        1.0
      ],
      "name": "Lamp"
    },
    {
      "name": "Lamp"
    },
    {
      "children": [
        5,
        6,
        7,
        8,
        9,
        10,
        11,
        12
      ],
      "name": "Cube.001"
    },
    {
      "mesh": 0,
      "name": "Cube.001_0"
    },
    {
      "mesh": 1,
      "name": "Cube.001_1"
    },
    {
      "mesh": 2,
      "name": "Cube.001_2"
    },
    {
      "mesh": 3,
      "name": "Cube.001_3"
    },
    {
      "mesh": 4,
      "name": "Cube.001_4"
    },
    {
      "mesh": 5,
      "name": "Cube.001_5"
    },
    {
      "mesh": 6,
      "name": "Cube.001_6"
    },
    {
      "mesh": 7,
      "name": "Cube.001_7"
    }
  ],
  "scene": 0,
  "scenes": [
    {
      "name": "Sketchfab_Scene",
      "nodes": [
        0
      ]
    }
  ]
}
