{
  "accessors": [
    {
      "bufferView": 2,
      "componentType": 5126,
      "count": 405,
      "max": [
        0.44257327914237976,
        0.5028645992279053,
        0.3310258388519287
      ],
      "min": [
        -0.3570510149002075,
        -0.003864266211166978,
        -0.39434531331062317
      ],
      "type": "VEC3"
    },
    {
      "bufferView": 2,
      "byteOffset": 4860,
      "componentType": 5126,
      "count": 405,
      "max": [
        0.9942802786827087,
        0.4625917673110962,
        0.9978547692298889
      ],
      "min": [
        -0.9944486021995544,
        -0.4477953314781189,
        -0.9855464696884155
      ],
      "type": "VEC3"
    },
    {
      "bufferView": 1,
      "componentType": 5126,
      "count": 405,
      "max": [
        1.0,
        1.0
      ],
      "min": [
        0.0,
        0.0
      ],
      "type": "VEC2"
    },
    {
      "bufferView": 0,
      "componentType": 5125,
      "count": 945,
      "type": "SCALAR"
    },
    {
      "bufferView": 2,
      "byteOffset": 9720,
      "componentType": 5126,
      "count": 162,
      "max": [
        0.29558342695236206,
        0.5028645992279053,
        0.26530709862709045
      ],
      "min": [
        -0.17929553985595703,
        -0.00386425550095737,
        -0.17725610733032227
      ],
      "type": "VEC3"
    },
    {
      "bufferView": 2,
      "byteOffset": 11664,
      "componentType": 5126,
      "count": 162,
      "max": [
        0.9978042244911194,
        0.6035967469215393,
        0.9985288977622986
      ],
      "min": [
        -0.996113121509552,
        -0.5517156720161438,
        -0.7399351000785828
      ],
      "type": "VEC3"
    },
    {
      "bufferView": 1,
      "byteOffset": 3240,
      "componentType": 5126,
      "count": 162,
      "max": [
        1.0,
        1.0
      ],
      "min": [
        0.0,
        0.0
      ],
      "type": "VEC2"
    },
    {
      "bufferView": 0,
      "byteOffset": 3780,
      "componentType": 5125,
      "count": 378,
      "type": "SCALAR"
    }
  ],
  "asset": {
    "extras": {
      "author": "Mitro123 (https://sketchfab.com/Mitro123)",
      "license": "CC-BY-4.0 (http://creativecommons.org/licenses/by/4.0/)",
      "source": "https://sketchfab.com/3d-models/grass-patches-c6efcb806d894f0fbda098563f170f74",
      "title": "Grass Patches"
    },
    "generator": "Sketchfab-15.30.0",
    "version": "2.0"
  },
  "bufferViews": [
    {
      "buffer": 0,
      "byteLength": 5292,
      "name": "floatBufferViews",
      "target": 34963
    },
    {
      "buffer": 0,
      "byteLength": 4536,
      "byteOffset": 5292,
      "byteStride": 8,
      "name": "floatBufferViews",
      "target": 34962
    },
    {
      "buffer": 0,
      "byteLength": 13608,
      "byteOffset": 9828,
      "byteStride": 12,
      "name": "floatBufferViews",
      "target": 34962
    }
  ],
  "buffers": [
    {
      "byteLength": 23436,
      "uri": "scene.bin"
    }
  ],
  "images": [
    {
      "uri": "textures/Scene_-_Root_baseColor.png"
    }
  ],
  "materials": [
    {
      "doubleSided": true,
      "name": "Scene_-_Root",
      "pbrMetallicRoughness": {
        "baseColorTexture": {
          "index": 0
        },
        "metallicFactor": 0.0,
        "roughnessFactor": 0.6
      }
    }
  ],
  "meshes": [
    {
      "name": "Grass_Patch_0__0",
      "primitives": [
        {
          "attributes": {
            "NORMAL": 1,
            "POSITION": 0,
            "TEXCOORD_0": 2
          },
          "indices": 3,
          "material": 0,
          "mode": 4
        }
      ]
    },
    {
      "name": "Grass_Patch_1__0",
      "primitives": [
        {
          "attributes": {
            "NORMAL": 5,
            "POSITION": 4,
            "TEXCOORD_0": 6
          },
          "indices": 7,
          "material": 0,
          "mode": 4
        }
      ]
    }
  ],
  "nodes": [
    {
      "children": [
        1
      ],
      "matrix": [
        1.0,
        0.0,
        0.0,
        0.0,
        0.0,
        2.220446049250313e-16,
        -1.0,
        0.0,
        0.0,
        1.0,
        2.220446049250313e-16,
        0.0,
        0.0,
        0.0,
        0.0,
        1.0
      ],
      "name": "Sketchfab_model"
    },
    {
      "children": [
        2
      ],
      "matrix": [
        1.0,
        0.0,
        0.0,
        0.0,
        0.0,
        0.0,
        1.0,
        0.0,
        0.0,
        -1.0,
        0.0,
        0.0,
        0.0,
        0.0,
        0.0,
        1.0
      ],
      "name": "00bd22e1fa7042cebd3ad09a3bdf73a9.fbx"
    },
    {
      "children": [
        3,
        5
      ],
      "name": "RootNode"
    },
    {
      "children": [
        4
      ],
      "name": "Grass_Patch_0"
    },
    {
      "mesh": 0,
      "name": "Grass_Patch_0__0"
    },
    {
      "children": [
        6
      ],
      "matrix": [
        1.0,
        0.0,
        0.0,
        0.0,
        0.0,
        1.0,
        0.0,
        0.0,
        0.0,
        0.0,
        1.0,
        0.0,
        -1.0,
        0.0,
        0.0,
        1.0
      ],
      "name": "Grass_Patch_1"
    },
    {
      "mesh": 1,
      "name": "Grass_Patch_1__0"
    }
  ],
  "samplers": [
    {
      "magFilter": 9729,
      "minFilter": 9987,
      "wrapS": 10497,
      "wrapT": 10497
    }
  ],
  "scene": 0,
  "scenes": [
    {
      "name": "Sketchfab_Scene",
      "nodes": [
        0
      ]
    }
  ],
  "textures": [
    {
      "sampler": 0,
      "source": 0
    }
  ]
}
